<svg width="166" height="60" viewBox="0 0 166 60" fill="none" xmlns="http://www.w3.org/2000/svg">
<path d="M165.393 7.4326V52.6625H161.226V7.4326H165.393ZM71.2813 52.6625H75.4483V33.2107H98.8208V29.6365H75.4483V11.0044H101.663V7.43016H71.2813V52.6601V52.6625ZM51.2121 8.78665C57.0699 14.6444 60 22.3222 60 30C60 37.6778 57.0699 45.3556 51.2121 51.2134C39.4966 62.9289 20.501 62.9289 8.78543 51.2134C2.9301 45.3531 0 37.6754 0 29.9976C0 22.3198 2.9301 14.6444 8.78787 8.78665C20.5034 -2.92888 39.499 -2.92888 51.2146 8.78665H51.2121ZM18.3638 54.2386C17.7197 53.9288 17.0902 53.597 16.4754 53.2383C17.0902 53.597 17.7197 53.9312 18.3638 54.2386ZM31.4602 38.2487L53.2371 16.4718C52.0782 14.4834 50.6656 12.6487 49.0066 10.9897C47.3427 9.32582 45.5008 7.90835 43.5051 6.74704L35.8663 14.3858L34.3976 12.9171L41.5826 5.73212C41.1019 5.50279 40.614 5.28565 40.1163 5.08315C39.9187 5.00264 39.7211 4.92457 39.521 4.85138L32.9264 11.4459L31.4577 9.97723L37.3106 4.12434C34.9417 3.45586 32.4946 3.11674 29.9988 3.11674C27.5029 3.11674 25.0462 3.4583 22.6723 4.12922L42.6536 24.1105L41.1849 25.5792L20.4619 4.8587C20.4619 4.8587 20.4009 4.87578 19.8837 5.08559C19.3811 5.28809 18.8883 5.50767 18.4028 5.73944L39.7113 27.0504L38.2426 28.5191L16.4803 6.7568C14.4895 7.91567 12.6524 9.3307 10.9909 10.9922C9.32948 12.6536 7.90957 14.498 6.74826 16.4937C6.74826 16.4937 6.75314 16.4937 6.75558 16.4937L14.3821 24.1203L12.9134 25.589L5.74066 18.4162C5.74066 18.4162 5.74066 18.4138 5.74066 18.4113C5.50888 18.8944 5.29175 19.3848 5.08925 19.8849C5.00874 20.0801 4.93555 20.2777 4.86236 20.4753L11.4447 27.0577L9.97601 28.5264L4.13288 22.6833C3.46196 25.0547 3.12284 27.5042 3.12284 30.0024C3.12284 32.5007 3.46196 34.9453 4.13044 37.3143L24.1117 17.333L25.5805 18.8017L4.85504 39.5198C4.85504 39.5198 4.86968 39.5735 5.08681 40.1151C6.43842 43.4477 8.42435 46.4388 10.9934 49.0054C12.6499 50.662 14.4846 52.077 16.4754 53.2359L24.1117 45.5996L25.5805 47.0683L18.3979 54.2532C18.8859 54.4875 19.3811 54.707 19.8861 54.912C20.0764 54.9876 20.2667 55.0632 20.457 55.1364L27.054 48.5394L28.5228 50.0081L22.6674 55.8635C25.0437 56.5368 27.5029 56.8784 30.0061 56.8784C32.5093 56.8784 34.9538 56.5393 37.3253 55.8683L22.5235 41.0666L17.3342 35.8773L18.8029 34.4061L39.5356 55.1413C39.7333 55.0657 39.9284 54.99 40.1236 54.912C40.6213 54.7095 41.1117 54.4923 41.5948 54.2606L20.2716 32.9374L21.7428 31.4687L43.5197 53.2456C45.5154 52.0843 47.3549 50.6693 49.0164 49.0079C50.6778 47.3464 52.0904 45.5117 53.2493 43.5209L45.6008 35.8724L47.0695 34.4013L54.2642 41.596C54.496 41.1105 54.7156 40.6177 54.9181 40.1151C54.9961 39.9223 55.0718 39.7296 55.145 39.5369L48.5382 32.9301L50.0069 31.459L55.872 37.324C56.5429 34.9502 56.8845 32.4958 56.8845 29.9951C56.8845 27.4944 56.5429 25.0352 55.8696 22.6564L35.8736 42.6524L34.4049 41.1837L55.1401 20.4485C55.0669 20.2582 54.9937 20.0679 54.9156 19.8776C54.7107 19.3726 54.4911 18.8773 54.2569 18.3894L32.9313 39.715L31.4626 38.2463L31.4602 38.2487ZM122.674 13.1537C125.697 11.4655 129.1 10.6067 132.784 10.6067C138.227 10.6067 142.821 12.4047 146.437 15.9521L149.103 13.2855C147.159 11.2386 144.783 9.65275 142.036 8.56951C139.184 7.44724 136.027 6.87635 132.652 6.87635C128.156 6.87635 124.033 7.88395 120.403 9.87232C116.775 11.8583 113.898 14.6493 111.849 18.1649C109.797 21.683 108.758 25.6817 108.758 30.0439C108.758 34.4061 109.797 38.4073 111.849 41.9253C113.898 45.4434 116.765 48.2345 120.371 50.2179C123.977 52.2063 128.088 53.2139 132.587 53.2139C135.961 53.2139 139.13 52.6333 142.001 51.489C144.77 50.3863 147.159 48.7883 149.103 46.7413L146.439 44.0772C142.865 47.666 138.271 49.486 132.784 49.486C129.098 49.486 125.694 48.6297 122.674 46.939C119.649 45.2482 117.246 42.9012 115.533 39.9638C113.82 37.0288 112.952 33.6913 112.952 30.0464C112.952 26.4014 113.82 23.0639 115.533 20.1289C117.246 17.1939 119.649 14.8469 122.674 13.1537ZM5.73578 41.5789C6.04806 42.2352 6.38718 42.8768 6.7507 43.5014L28.5154 21.7367L27.0467 20.268L5.73578 41.5789Z" fill="#F2F2F2"/>
</svg>
