<svg width="110" height="40" viewBox="0 0 110 40" fill="none" xmlns="http://www.w3.org/2000/svg">
<path d="M110 4.95507V35.1084H107.229V4.95507H110ZM47.4078 35.1084H50.1792V22.1404H65.7238V19.7577H50.1792V7.33623H67.6142V4.95344H47.4078V35.1067V35.1084ZM34.0602 5.85776C37.9561 9.76294 39.9049 14.8815 39.9049 20C39.9049 25.1185 37.9561 30.2371 34.0602 34.1422C26.2684 41.9526 13.6348 41.9526 5.84302 34.1422C1.94875 30.2354 0 25.1169 0 19.9984C0 14.8798 1.94876 9.76294 5.84464 5.85776C13.6364 -1.95259 26.2701 -1.95259 34.0618 5.85776H34.0602ZM12.2134 36.1591C11.785 35.9525 11.3664 35.7313 10.9575 35.4922C11.3664 35.7313 11.785 35.9541 12.2134 36.1591ZM20.9236 25.4991L35.407 10.9812C34.6362 9.65559 33.6968 8.43248 32.5934 7.32648C31.4868 6.21722 30.2617 5.27223 28.9344 4.49803L23.854 9.59053L22.8772 8.61139L27.6558 3.82141C27.3361 3.66852 27.0116 3.52377 26.6806 3.38877C26.5492 3.3351 26.4177 3.28305 26.2847 3.23425L21.8988 7.63063L20.9219 6.65149L24.8146 2.74956C23.239 2.30391 21.6115 2.07783 19.9516 2.07783C18.2917 2.07783 16.6577 2.30553 15.0789 2.75282L28.3681 16.0737L27.3913 17.0528L13.6088 3.23913C13.6088 3.23913 13.5683 3.25052 13.2243 3.3904C12.89 3.52539 12.5623 3.67178 12.2394 3.82629L26.4112 18.0336L25.4344 19.0127L10.9607 4.50453C9.63668 5.27711 8.41486 6.22047 7.30986 7.3281C6.20486 8.43573 5.2605 9.66535 4.48814 10.9958C4.48814 10.9958 4.49139 10.9958 4.49301 10.9958L9.56529 16.0802L8.58848 17.0593L3.818 12.2775C3.818 12.2775 3.818 12.2759 3.818 12.2742C3.66385 12.5963 3.51944 12.9232 3.38477 13.2566C3.33122 13.3867 3.28254 13.5185 3.23386 13.6502L7.61167 18.0385L6.63485 19.0176L2.7487 15.1222C2.30248 16.7031 2.07694 18.3361 2.07694 20.0016C2.07694 21.6671 2.30248 23.2969 2.74708 24.8762L16.0363 11.5553L17.0131 12.5345L3.22899 26.3465C3.22899 26.3465 3.23873 26.3823 3.38314 26.7434C4.28207 28.9652 5.60287 30.9592 7.31148 32.6703C8.41323 33.7747 9.63344 34.718 10.9575 35.4906L16.0363 30.3997L17.0131 31.3788L12.2361 36.1688C12.5606 36.325 12.89 36.4714 13.2259 36.608C13.3525 36.6584 13.479 36.7088 13.6056 36.7576L17.9931 32.3596L18.9699 33.3388L15.0757 37.2423C16.6561 37.6912 18.2917 37.9189 19.9565 37.9189C21.6213 37.9189 23.2471 37.6928 24.8243 37.2456L14.9799 27.3777L11.5286 23.9182L12.5055 22.9374L26.2944 36.7609C26.4258 36.7104 26.5556 36.66 26.6855 36.608C27.0165 36.473 27.3426 36.3282 27.6639 36.1737L13.4823 21.9583L14.4607 20.9791L28.9441 35.4971C30.2714 34.7229 31.4949 33.7795 32.5999 32.6719C33.7049 31.5643 34.6444 30.3412 35.4151 29.0139L30.3282 23.9149L31.305 22.9342L36.0901 27.7307C36.2442 27.407 36.3903 27.0784 36.525 26.7434C36.5769 26.6149 36.6272 26.4864 36.6759 26.3579L32.2818 21.9534L33.2586 20.9726L37.1594 24.8827C37.6056 23.3001 37.8328 21.6639 37.8328 19.9967C37.8328 18.3296 37.6056 16.6901 37.1578 15.1043L23.8589 28.4349L22.8821 27.4558L36.6726 13.6323C36.6239 13.5055 36.5753 13.3786 36.5233 13.2517C36.387 12.9151 36.241 12.5849 36.0852 12.2596L21.902 26.4766L20.9252 25.4975L20.9236 25.4991ZM81.5881 8.76916C83.5985 7.64364 85.8621 7.07112 88.3122 7.07112C91.9322 7.07112 94.9876 8.26983 97.3923 10.6347L99.1658 8.85699C97.8726 7.49238 96.2922 6.43516 94.4651 5.71301C92.5683 4.96483 90.4686 4.58423 88.2246 4.58423C85.2341 4.58423 82.4919 5.25597 80.0774 6.58155C77.6646 7.9055 75.7516 9.76619 74.3886 12.11C73.024 14.4553 72.3327 17.1211 72.3327 20.0293C72.3327 22.9374 73.024 25.6048 74.3886 27.9502C75.7516 30.2956 77.6581 32.1563 80.0564 33.4786C82.4546 34.8042 85.1887 35.4759 88.1808 35.4759C90.4248 35.4759 92.5326 35.0888 94.4424 34.326C96.2841 33.5909 97.8726 32.5255 99.1658 31.1609L97.3939 29.3848C95.0168 31.7773 91.9614 32.9907 88.3122 32.9907C85.8604 32.9907 83.5969 32.4198 81.5881 31.2926C79.5761 30.1655 77.9778 28.6008 76.8387 26.6425C75.6996 24.6859 75.122 22.4609 75.122 20.0309C75.122 17.6009 75.6996 15.3759 76.8387 13.4193C77.9778 11.4626 79.5761 9.89794 81.5881 8.76916ZM3.81476 27.7193C4.02245 28.1568 4.24799 28.5846 4.48976 29.0009L18.9651 14.4911L17.9883 13.512L3.81476 27.7193Z" fill="white"/>
</svg>
